<?xml version="1.0" encoding="UTF-8"?>
<svg width="1540px" height="553px" viewBox="0 0 1540 553" version="1.1" xmlns="http://www.w3.org/2000/svg" xmlns:xlink="http://www.w3.org/1999/xlink">
    <title>BoA</title>
    <g id="Page-1" stroke="none" stroke-width="1" fill="none" fill-rule="evenodd">
        <g id="Group" transform="translate(0.000000, 0.800000)" fill-rule="nonzero">
            <path d="M651.7,340.9 C667.2,347.1 682.4,353.6 697.5,360.6 C649.6,380.1 603.3,403.1 558.9,429.6 C543.9,421.7 528.7,414.4 513.2,407.4 C557.5,381.6 603.7,359.5 651.7,340.9 M594.5,320.8 C544.9,336.6 496.9,357.2 451.2,382.3 C465.7,387.5 480,393.1 494.2,399 C538.4,373.2 584.8,351.3 633.4,334 C620.5,329.3 607.5,324.9 594.5,320.8" id="Shape" fill="#0061AA"></path>
            <path d="M759.7,339.1 C720.5,320.1 679.8,304.2 638.1,291.5 C623.4,295.7 608.8,300.3 594.4,305.4 C637.4,318.1 679.2,334.2 719.6,353.6 C732.8,348.4 746.3,343.5 759.7,339.1 M823.5,320 C783.5,302.4 742,287.8 699.7,276.2 C686.2,279 672.9,282.1 659.6,285.6 C701.5,297.9 742.4,313.4 782,331.9 C795.8,327.7 809.6,323.7 823.5,320 M926.2,354.4 C825.6,388.3 731.6,436.6 646.3,496.9 C667.6,510.1 688.3,524.1 708.7,538.7 C789.6,474.5 878.8,421.6 974,381.5 C958.5,372.2 942.4,362.9 926.2,354.4 M857.1,321.6 C753.5,349 655,393.3 565.7,452.6 C585.6,462.4 605.2,472.9 624.5,484.1 C712,423.5 808.5,377 910.5,346.3 C892.9,337.5 875.1,329.2 857.1,321.6" id="Shape" fill="#E3173E"></path>
            <path d="M568.2,50.8 C531.9,50.8 513.8,77.5 513.8,113.6 C513.8,151.1 531.2,177.3 568.2,177.3 C605.3,177.3 622.6,151.1 622.6,113.6 C622.6,77.5 604.6,50.8 568.2,50.8 M568.2,152.7 C558.6,152.7 554.3,144.1 554.3,113.5 C554.3,85.7 557.2,75.2 568.2,75.2 C579.3,75.2 582.1,85.6 582.1,113.5 C582.2,144.2 577.9,152.7 568.2,152.7 M647.7,40.6 L647.7,54 L631.8,54 L631.8,81.5 L647.7,81.5 L647.7,174.8 L686.7,174.8 L686.7,81.5 L707.9,81.5 L707.9,54 L686.7,54 L686.7,41.8 C686.7,34.5 690.4,30.5 700.6,30.5 C702.7,30.5 705.6,31.1 707.9,31.5 L707.9,1.6 C701.6,0.8 695.8,1.42108547e-14 688.1,1.42108547e-14 C662.4,1.42108547e-14 647.7,11 647.7,40.6 M232.5,87.9 C232.5,61.1 208.3,51.2 184.9,51.2 C162.8,51.2 141.1,60.8 136.7,84.5 L170.6,91.6 C171.1,84.4 174.1,75.7 183.4,75.7 C190.1,75.7 193.5,80.4 193.5,87.7 L193.5,98 C167.9,101 132.3,110.2 131.4,141.8 C130.9,164 145.7,177 165.1,177 C176.7,177 188,170.6 194.7,163.6 C194.9,165.5 195.2,171.3 196,174.7 L236.2,174.7 C234.7,173 232.6,168.9 232.6,155.2 L232.5,87.9 L232.5,87.9 Z M193.5,143.8 C190.2,148.2 185.5,151.4 181,151.4 C174,151.4 169.8,147.1 169.8,138.7 C169.8,123.3 180.1,118.1 193.6,116.8 L193.5,143.8 L193.5,143.8 Z M328,51.2 C312.7,51.2 302,58.2 294.1,66.3 L293.5,66.3 L293.3,53.9 L255.2,53.9 L255.2,174.7 L294.2,174.7 L294.2,88.3 C297.8,83.8 302.5,80.8 306.9,80.8 C313.5,80.8 315.9,84.7 315.9,91.5 L315.9,174.6 L354.9,174.6 L354.9,79.2 C354.8,62.6 345,51.2 328,51.2 M485.8,53.9 L447.1,53.9 L418.4,90.4 L417.9,90.4 L417.9,3.5 L379,3.5 L379,174.7 L417.9,174.7 L417.9,131.4 L426.2,121.9 L426.7,121.9 L445.7,174.7 L486,174.7 L453.2,91.1 L485.8,53.9 Z M89.8,85.7 L89.8,84.4 C102.3,79.4 117.9,67.7 117.9,45.4 C117.9,21.7 97.9,3.6 67.6,3.6 L0,3.6 L0,174.8 L65.9,174.8 C98.4,174.8 121.9,158.2 121.9,128.9 C121.9,106.9 108.5,91.8 89.8,85.7 M41.9,33.8 L57.1,33.8 C66.9,33.8 77.9,36.5 77.9,52.8 C77.9,62.9 71.8,71.3 56.2,71.3 L42,71.3 L41.9,33.8 L41.9,33.8 Z M57.9,143 L41.9,143 L41.9,100.2 L57.8,100.2 C71.8,100.2 79.6,108.7 79.6,121.3 C79.7,138.8 67.3,143 57.9,143 M1536.1,155.2 L1536.1,87.9 C1536.1,61.1 1511.9,51.2 1488.6,51.2 C1466.5,51.2 1444.8,60.8 1440.4,84.5 L1474.3,91.6 C1474.8,84.4 1477.7,75.7 1487.1,75.7 C1493.8,75.7 1497.2,80.4 1497.2,87.7 L1497.2,98 C1471.5,101 1436,110.2 1435.1,141.8 C1434.5,164 1449.3,177 1468.9,177 C1480.3,177 1491.7,170.6 1498.4,163.6 C1498.7,165.5 1498.9,171.3 1499.6,174.7 L1539.8,174.7 C1538.4,173 1536.1,168.9 1536.1,155.2 M1497.3,143.8 C1493.9,148.2 1489.2,151.4 1484.8,151.4 C1477.8,151.4 1473.5,147.1 1473.5,138.7 C1473.5,123.3 1483.7,118.1 1497.3,116.8 L1497.3,143.8 Z M1111.6,50.8 C1075.8,50.8 1057.9,79.6 1057.9,113.8 C1057.9,147.2 1074.8,177.3 1112.1,177.3 C1146.7,177.3 1158.6,149.8 1160.5,144.4 L1134.1,134.8 C1132.2,144.6 1124.3,151.3 1114.8,151.3 C1099.1,151.3 1096.4,133.4 1096.8,122.7 L1161.90058,122.7 L1161.90058,114.5 C1162,83 1149.1,50.8 1111.6,50.8 M1126,99.7 L1096.9,99.7 C1096.3,88.2 1100.3,75.4 1111.2,75.4 C1124.8,75.3 1126.3,88.3 1126,99.7 M1267.1,114.3 L1267.1,174.7 L1306.1,174.7 L1306.1,53.9 L1267.1,53.9 L1267.1,114.3 Z M1267.1,38.1 L1306.1,38.1 L1306.1,3.5 L1267.1,3.5 L1267.1,38.1 Z M1379.2,75.3 C1385.5,75.3 1388.6,78.7 1390.5,83.5 C1392.3,88 1392.5,93.9 1392.5,98.6 L1425.6,98.6 C1425.6,86.6 1419.4,50.8 1378.1,50.8 C1341.3,50.8 1323,83.7 1323,116.6 C1323,146.4 1341.3,177.2 1376.3,177.2 C1404.7,177.2 1421.5,161.8 1424.4,132.5 L1394,128.2 C1394,137.4 1392.9,151.2 1379.2,151.2 C1369.2,151.2 1364.8,142.4 1364.8,115.2 C1364.8,91.3 1366.3,75.3 1379.2,75.3 M775.6,3.5 L735.4,174.7 L772.9,174.7 L780.3,140.1 L820,140.1 L826.8,174.7 L868.8,174.7 L832.3,3.5 L775.6,3.5 Z M786.4,109.8 L800.8,40.1 L801.7,40.1 L814,109.8 L786.4,109.8 Z M1216.7,70.3 L1216.2,70.3 L1215.8,53.9 L1178,53.9 L1178,174.7 L1217,174.7 L1217,96.5 C1221.6,91 1228.5,87.1 1238.3,87.1 C1245.1,87.1 1249.9,88.7 1254.2,90.5 L1254.2,51.2 C1239.3,51.2 1224.7,57.6 1216.7,70.3 M1013.8,51.2 C997.6,51.2 985.9,59.8 979.1,67.3 L978.5,67.3 C974.9,57.9 967,51.2 955.2,51.2 C940.6,51.2 928.4,58.7 920.3,66.2 L919.8,66.2 L919.7,53.9 L881.7,53.9 L881.7,174.7 L919.9,174.7 L919.9,88.6 C923.2,84.1 929,81.1 933.2,81.1 C940.4,81.1 942.3,85.5 942.3,91.9 L942.3,174.7 L980.5,174.7 L980.5,88.6 C983.1,85.2 988.7,81.1 993.8,81.1 C1001,81.1 1003,85.5 1003,91.9 L1003,174.7 L1041.2,174.7 L1041.2,78.5 C1041,61.7 1030,51.2 1013.8,51.2" id="Shape" fill="#0061AA"></path>
            <path d="M973.9,425.2 C973.9,415.6 981.8,407.9 991.4,407.9 C1001,407.9 1008.7,415.7 1008.8,425.2 C1008.8,434.8 1001,442.7 991.4,442.7 C981.8,442.7 973.9,434.8 973.9,425.2 M976.9,425.2 C976.9,433.1 983.3,439.6 991.2,439.7 C991.2,439.7 991.3,439.7 991.3,439.7 C999.2,439.7 1005.6,433.3 1005.6,425.2 C1005.6,417.3 999.2,410.8 991.3,410.8 C983.4,410.8 976.9,417.2 976.9,425.2 C976.9,425.2 976.9,425.2 976.9,425.2 M999.3,434.2 L996.4,434.2 L992.8,426.7 L987.7,426.7 L987.7,434.2 L984.9,434.2 L984.9,416.1 L992.7,416.1 C996.3,416.1 998.8,418.2 998.8,421.2 C998.8,423.5 997.5,425.2 995.4,426.1 L999.3,434.2 Z M987.7,424.3 L992.4,424.3 C994.7,424.3 996.1,423.2 996.1,421.3 C996.1,419.7 994.8,418.6 992.8,418.6 L987.7,418.6 L987.7,424.3 Z" id="Shape" fill="#E3173E"></path>
        </g>
    </g>
</svg>